<svg width="24" height="24" viewBox="0 0 18 20" xmlns="http://www.w3.org/2000/svg"><path d="m16.5 2.11915-2.9348 1.46737c-.2655.1328-.538.22405-.8152.2784v13.52438l3.5273-2.3515c.1391-.0928.2227-.2489.2227-.4161zm-5.25 15.27015v-13.55577c-.2715-.05802-.5438-.14166-.8152-.24701l-3.68482-1.84239.00002.00587v12.759c.2221.0698.43664.1714.63675.3048zm-9.52735-13.04286 3.52735-2.35157v12.51413c-.2221.0698-.43664.1714-.63675.3048l-3.11325 2.0755v-12.12684c0-.16718 0-.26246.22265-.41602zm-.83205-1.24808c-.556398.37093-.8906.9954-.8906 1.6641v13.06114c0 .7987.890145 1.2751 1.5547.832l3.8906-2.5937c.3359-.2239.7735-.2239 1.1094 0l4.3359 2.8906c.6718.4479 1.547.4479 2.2188 0l4-2.6667c.5564-.3709.8906-.9954.8906-1.6641v-13.31157c0-.743384-.7823-1.22688-1.4472-.894429l-3.6584 1.829179c-.563.28153-1.2258.28153-1.7888 0l-4.06749-2.03373c-.64194-.320971-1.40665-.2733621-2.00382.124754z" fill="#191e26" fill-rule="evenodd"/></svg>