<svg height="24" viewBox="0 0 24 24" width="24" xmlns="http://www.w3.org/2000/svg"><path d="m4 6.5c-.27614237 0-.5.22385763-.5.5v10c0 .2761424.22385763.5.5.5h16c.2761424 0 .5-.2238576.5-.5v-10c0-.27614237-.2238576-.5-.5-.5zm0-1.5h16c1.1045695 0 2 .8954305 2 2v10c0 1.1045695-.8954305 2-2 2h-16c-1.1045695 0-2-.8954305-2-2v-10c0-1.1045695.8954305-2 2-2zm10.75 4.20029098h2.5c.4142136 0 .75.33578644.75.75 0 .41421352-.3357864.75000002-.75.75000002h-2.5c-.4142136 0-.75-.3357865-.75-.75000002 0-.41421356.3357864-.75.75-.75zm0 4.04970902h2.5c.4142136 0 .75.3357864.75.75s-.3357864.75-.75.75h-2.5c-.4142136 0-.75-.3357864-.75-.75s.3357864-.75.75-.75zm-5.24181306-5.21261231 3.53006596 2.48973421v3.1751001l-3.53006596 2.2603903-3.53006599-2.2603903v-3.1751001zm-2.03006599 3.26734201v1.5768185l2.03006599 1.2999024 2.03006596-1.2999024v-1.5768185l-2.03006596-1.4317933z" fill="#191e26"/></svg>