<svg enable-background="new 0 0 48 48" viewBox="0 0 48 48" xmlns="http://www.w3.org/2000/svg"><path d="m24 32.5c-2.2 0-4.2-1-5.6-2.6-2.1.2-4.2-.6-5.8-2.1-1.5-1.5-2.3-3.6-2.1-5.8-1.6-1.3-2.5-3.3-2.5-5.5s1-4.2 2.6-5.6c-.2-2.1.6-4.2 2.1-5.8 1.5-1.5 3.6-2.3 5.8-2.1 1.4-1.6 3.4-2.6 5.6-2.6s4.2 1 5.6 2.6c2.1-.2 4.2.6 5.8 2.1 1.5 1.5 2.3 3.6 2.1 5.8 1.6 1.4 2.6 3.4 2.6 5.6s-1 4.2-2.6 5.6c.2 2.1-.6 4.2-2.1 5.8-1.5 1.3-3.4 2.1-5.3 2.1-.2 0-.4 0-.6 0-1.4 1.6-3.4 2.5-5.6 2.5zm-4.7-6.6c.7 0 1.4.4 1.7 1 .6 1.1 1.7 1.8 3 1.8 1.2 0 2.4-.7 3-1.8.4-.8 1.4-1.2 2.3-.9 1.2.3 2.5 0 3.3-.9.9-.9 1.2-2.1.9-3.3-.3-.9.1-1.8.9-2.3 1.1-.6 1.8-1.7 1.8-3 0-1.2-.7-2.4-1.8-3-.8-.4-1.2-1.4-.9-2.3.3-1.2 0-2.5-.9-3.3-.9-.9-2.2-1.2-3.3-.9-1 .4-1.9 0-2.3-.8-.6-1.1-1.7-1.8-3-1.8-1.2 0-2.4.7-3 1.8-.4.8-1.4 1.2-2.3.9-1.2-.3-2.5 0-3.3.9-.9.9-1.2 2.1-.9 3.3.3.9-.1 1.8-.9 2.3-1.1.6-1.8 1.7-1.8 3 0 1.2.7 2.4 1.8 3 .8.4 1.2 1.4.9 2.3-.3 1.2 0 2.5.9 3.3.9.9 2.2 1.2 3.3.9.3-.2.4-.2.6-.2z"/><path d="m35.3 47.5c-.7 0-1.3-.3-1.6-.9l-9.7-14.8c-.6-.9-.3-2.1.6-2.7s2.1-.3 2.7.6l7.8 12 1.3-2.4c.4-.7 1.1-1.1 1.9-1l2.3.2-7.5-11.4c-.6-.9-.3-2.1.6-2.7s2.1-.3 2.7.6l9.8 14.8c.4.6.4 1.4 0 2.1-.4.6-1.1 1-1.9.9l-5-.5-2.3 4.2c-.3.6-.9 1-1.7 1z"/><path d="m12.7 47.5c-.8 0-1.4-.4-1.7-1l-2.2-4.2-5 .5c-.8.1-1.5-.3-1.9-.9s-.4-1.5 0-2.1l9.8-14.8c.6-.9 1.8-1.2 2.7-.6s1.2 1.8.6 2.7l-7.6 11.4 2.3-.2c.8-.1 1.5.3 1.9 1l1.3 2.4 7.8-12c.6-.9 1.8-1.2 2.7-.6s1.2 1.8.6 2.7l-9.6 14.8c-.4.6-1 .9-1.7.9z"/></svg>