<svg viewBox="0 0 100 100" xmlns="http://www.w3.org/2000/svg"><path d="m18 98h64a16 16 0 0 0 16-16v-64a16 16 0 0 0 -16-16h-64a16 16 0 0 0 -16 16v64a16 16 0 0 0 16 16zm64-8h-64a8 8 0 0 1 -8-8v-48h80v48a8 8 0 0 1 -8 8zm-64-80h64a8 8 0 0 1 8 8v8h-80v-8a8 8 0 0 1 8-8z"/><circle cx="26" cy="62" r="4"/><circle cx="26" cy="78" r="4"/><circle cx="42" cy="62" r="4"/><circle cx="42" cy="78" r="4"/><circle cx="58" cy="62" r="4"/><circle cx="58" cy="78" r="4"/><circle cx="74" cy="62" r="4"/><circle cx="42" cy="46" r="4"/><circle cx="58" cy="46" r="4"/><circle cx="74" cy="46" r="4"/></svg>