<svg viewBox="0 0 24 24" width="24" height="24" xmlns="http://www.w3.org/2000/svg"><path fill="#191e26" d="m6.5 16.22.39-.5a2 2 0 0 1 3.11 0l.46.57 2.8-3.5a2 2 0 0 1 3.11 0l1.13 1.39v-2.68h1.5v8.5a2 2 0 0 1 -2 2h-10a2 2 0 0 1 -2-2v-16c0-1.1.9-2 2-2h4.18a2 2 0 0 1 1.4.58l5.83 5.75a2 2 0 0 1 .59 1.42v.25h-6a2 2 0 0 1 -2-2v-4.5h-4a.5.5 0 0 0 -.5.5zm0 2.4v1.38c0 .28.22.5.5.5h5.67l-3.83-3.84a.5.5 0 0 0 -.78 0zm8.08 1.88h2.42a.5.5 0 0 0 .5-.5v-3.44l-2.3-2.83a.5.5 0 0 0 -.77 0l-3 3.75zm1.82-12.03-3.9-3.87v3.37c0 .27.22.5.5.5h3.41zm-6.9 4.53a1.5 1.5 0 1 1 0-3 1.5 1.5 0 0 1 0 3z"/></svg>