<svg fill="none" height="24" viewBox="0 0 24 24" width="24" xmlns="http://www.w3.org/2000/svg"><path d="m15 5c-.9193 0-1.8295.18106-2.6788.53284-.8493.35179-1.6209.8674-2.2709 1.51741-.65006.65001-1.16567 1.42169-1.51746 2.27097-.35178.84928-.53284 1.75948-.53284 2.67878s.18106 1.8295.53284 2.6788c.35179.8493.8674 1.6209 1.51746 2.2709.65.6501 1.4216 1.1657 2.2709 1.5175.8493.3517 1.7595.5328 2.6788.5328 3.866 0 6.99-3.134 6.99-7s-3.124-7-6.99-7zm0 12.5c-1.4582-.0016-2.8562-.5816-3.8873-1.6127s-1.61111-2.4291-1.6127-3.8873c0-.996.27-1.929.735-2.735l4.765 2.735v-5.5c3.033 0 5.5 2.467 5.5 5.5s-2.467 5.5-5.5 5.5zm-12-6.5h2v2h-2zm0 6.005h2v1.99h-2zm0-12.005h2v2h-2z" fill="#191e26"/></svg>