<svg width="24" height="24" viewBox="0 0 24 24" xmlns="http://www.w3.org/2000/svg"><linearGradient id="a" x1="0%" y1="100%" y2="0%"><stop offset="0" stop-color="#ffd520"/><stop offset=".497" stop-color="#f50000"/><stop offset="1" stop-color="#b900b4"/></linearGradient><path d="m12 3c-2.445 0-2.75.011-3.71.054-.959.045-1.611.196-2.185.419a4.396 4.396 0 0 0 -1.594 1.037c-.5.5-.81 1.001-1.038 1.594-.223.574-.375 1.226-.419 2.185-.045.961-.054 1.266-.054 3.711s.011 2.75.054 3.71c.045.959.196 1.612.419 2.185.229.592.537 1.095 1.038 1.594.5.5 1.001.81 1.594 1.038.574.223 1.226.375 2.185.419.96.045 1.265.054 3.71.054s2.75-.011 3.71-.054c.959-.045 1.612-.196 2.185-.419a4.396 4.396 0 0 0 1.594-1.038c.5-.5.81-1.001 1.038-1.594.223-.574.375-1.226.419-2.185.045-.96.054-1.265.054-3.71s-.011-2.75-.054-3.71c-.045-.959-.196-1.612-.419-2.185a4.396 4.396 0 0 0 -1.038-1.594c-.5-.5-1.001-.81-1.594-1.038-.574-.223-1.226-.375-2.185-.419-.96-.045-1.265-.054-3.71-.054zm0 1.62c2.403 0 2.689.011 3.637.054.878.04 1.354.187 1.67.31.422.164.72.358 1.036.673.315.315.51.614.672 1.035.124.317.27.793.311 1.67.043.95.053 1.235.053 3.638s-.011 2.689-.056 3.637c-.045.878-.192 1.354-.315 1.67-.17.422-.36.72-.675 1.036-.315.315-.62.51-1.035.672-.315.124-.8.27-1.677.311-.956.043-1.237.053-3.645.053-2.407 0-2.688-.011-3.645-.056-.877-.045-1.36-.192-1.676-.315a2.801 2.801 0 0 1 -1.035-.675 2.753 2.753 0 0 1 -.675-1.035c-.124-.315-.27-.8-.315-1.677-.034-.945-.045-1.237-.045-3.633 0-2.397.011-2.69.045-3.645.045-.878.191-1.362.315-1.677.158-.427.36-.72.675-1.035a2.668 2.668 0 0 1 1.035-.675c.315-.123.788-.27 1.665-.315.956-.033 1.238-.045 3.645-.045zm0 2.758a4.621 4.621 0 1 0 0 9.243 4.621 4.621 0 0 0 0-9.242zm0 7.622a3 3 0 1 1 0-6 3 3 0 0 1 0 6zm5.884-7.804a1.08 1.08 0 1 1 -2.16 0 1.08 1.08 0 0 1 2.16 0z" fill="url(#a)"/></svg>