<svg width="24" height="24" fill="none" xmlns="http://www.w3.org/2000/svg"><path fill-rule="evenodd" clip-rule="evenodd" d="M20.364 9.034A2 2 0 0122 11v7.838a2 2 0 01-2 2H4a2 2 0 01-2-2V11a2 2 0 011.633-1.966L5 7.954V6a2 2 0 012-2h3.004l.74-.585a2.03 2.03 0 012.51 0l.74.585H17a2 2 0 012 2v1.956l1.364 1.078zM17.5 10.439V6a.5.5 0 00-.5-.5H7a.5.5 0 00-.5.5v4.439l5.5 4.4 5.5-4.4zM4 10.5a.5.5 0 01.312.11l6.751 5.4a1.5 1.5 0 001.874 0l6.75-5.4a.5.5 0 01.813.39v7.839a.5.5 0 01-.5.5H4a.5.5 0 01-.5-.5V11a.5.5 0 01.5-.5z" fill="#191E26"/></svg>