<svg width="24" height="24" fill="none" xmlns="http://www.w3.org/2000/svg"><path fill-rule="evenodd" clip-rule="evenodd" d="M19 10v-.033h.023L19 9.943V9.75a2 2 0 00-.595-1.423l-5.82-5.75A2 2 0 0011.178 2H7a2 2 0 00-2 2v16a2 2 0 002 2h10a2 2 0 002-2v-8.5h-1.5V20a.5.5 0 01-.5.5H7a.5.5 0 01-.5-.5V4a.5.5 0 01.5-.5h4v4.467a2 2 0 002 2h4.5V10H19zm-6.5-5.398l3.913 3.865H13a.5.5 0 01-.5-.5V4.602zM9.75 12.25h4.5a.75.75 0 010 1.5h-4.5a.75.75 0 010-1.5zm4.5 4h-4.5a.75.75 0 000 1.5h4.5a.75.75 0 000-1.5z" fill="#191E26"/></svg>