<svg viewBox="0 0 100 100" xmlns="http://www.w3.org/2000/svg"><path d="m86.8 23.6a28.19 28.19 0 0 0 -16.8-5.6h-.69a21.51 21.51 0 0 0 -15.31 6.34v-1.69a13.52 13.52 0 0 1 9.27-12.85 4 4 0 0 0 -2.54-7.59 21.51 21.51 0 0 0 -14.73 20.44v1.69a21.51 21.51 0 0 0 -15.31-6.34h-.69a28 28 0 0 0 -28 28 61.53 61.53 0 0 0 18.14 43.8l2.79 2.79a18.49 18.49 0 0 0 26.14 0l.93-.93.93.93a18.49 18.49 0 0 0 26.14 0l2.79-2.79a61.53 61.53 0 0 0 18.14-43.8 28.14 28.14 0 0 0 -11.2-22.4zm-12.6 60.54-2.79 2.79a10.73 10.73 0 0 1 -14.82 0l-3.76-3.76a4 4 0 0 0 -5.66 0l-3.76 3.76a10.73 10.73 0 0 1 -14.82 0l-2.79-2.79a53.56 53.56 0 0 1 -15.8-38.14 20 20 0 0 1 20-20h.69a13.56 13.56 0 0 1 9.65 4 14 14 0 0 0 19.32 0 13.56 13.56 0 0 1 9.65-4h.69a20 20 0 0 1 20 20 53.56 53.56 0 0 1 -15.8 38.14z"/></svg>