<svg enable-background="new 0 0 46 46" viewBox="0 0 46 46" xmlns="http://www.w3.org/2000/svg"><g fill="#231f20"><path d="m23 3c2.7 0 5.3.5 7.8 1.6 2.4 1 4.5 2.5 6.4 4.3 1.8 1.8 3.3 4 4.3 6.4 1 2.5 1.6 5.1 1.6 7.8s-.5 5.3-1.6 7.8c-1 2.4-2.5 4.5-4.3 6.4-1.8 1.8-4 3.3-6.4 4.3-2.5 1-5.1 1.6-7.8 1.6s-5.3-.5-7.8-1.6c-2.4-1-4.5-2.5-6.4-4.3s-3.3-4-4.3-6.4c-1-2.6-1.5-5.2-1.5-7.9s.5-5.3 1.6-7.8c1-2.4 2.5-4.5 4.3-6.4s4-3.3 6.4-4.3 5-1.5 7.7-1.5m0-3c-12.7 0-23 10.3-23 23s10.3 23 23 23 23-10.3 23-23-10.3-23-23-23z"/><path d="m17.2 18.1c-1.1 0-2 .4-2.7 1.3s-.9 2.1-.9 3.6c0 3.2 1.2 4.8 3.6 4.8 1 0 2.2-.3 3.7-.8v2.6c-1.2.5-2.5.7-4 .7-2.1 0-3.7-.6-4.8-1.9s-1.7-3.1-1.7-5.5c0-1.5.3-2.8.8-3.9s1.3-2 2.3-2.6 2.2-.9 3.6-.9 2.8.3 4.2 1l-1 2.5c-.5-.3-1.1-.5-1.6-.7-.5-.1-1-.2-1.5-.2z"/><path d="m33.3 24.6c0 1.8-.5 3.2-1.4 4.2s-2.3 1.5-3.9 1.5c-1.1 0-2-.2-2.8-.7s-1.4-1.1-1.9-2-.7-1.9-.7-3c0-1.8.5-3.2 1.4-4.2s2.3-1.5 4-1.5c1.1 0 2 .2 2.8.7s1.4 1.1 1.9 2c.3.9.6 1.9.6 3zm-7.6 0c0 1.1.2 1.9.5 2.5.4.6.9.8 1.7.8s1.4-.3 1.7-.8c.3-.6.5-1.4.5-2.5s-.2-1.9-.5-2.4c-.4-.5-.9-.8-1.7-.8s-1.4.3-1.7.8c-.4.5-.5 1.3-.5 2.4z"/><path d="m33.5 29.4c0-.3.1-.6.3-.8s.4-.3.8-.3c.3 0 .6.1.8.3s.3.4.3.8c0 .3-.1.6-.3.8s-.4.3-.8.3c-.3 0-.6-.1-.8-.3-.3-.2-.3-.5-.3-.8z"/></g></svg>