<svg viewBox="0 0 100 100" xmlns="http://www.w3.org/2000/svg"><path d="m100 76.74c-.16.59-.32 1.18-.49 1.76a12.5 12.5 0 0 1 -12.11 9c-25.75 0-51.5-.05-77.25 0-5.54 0-9-3.52-9.84-7a9.85 9.85 0 0 1 -.31-2.27q0-23.39 0-46.78a3.09 3.09 0 0 1 3.33-3.35h9.17c0-.81 0-1.55 0-2.29q0-5 0-10.06a3.05 3.05 0 0 1 3.21-3.27h81.05a3.37 3.37 0 0 1 3.24 2.34zm-81.22-58v.65 39.35c0 7.47.31 14.94-.24 22.47h68.85a6.28 6.28 0 0 0 6.35-6.4q0-27.59 0-55.17c0-.28 0-.57 0-.89h-75zm-12.49 15.66v.4q0 21.57 0 43.14a3.13 3.13 0 1 0 6.25-.13q0-21.18 0-42.36c0-.34 0-.69 0-1.05z"/><path d="m56.22 34.55h-26.35a3.12 3.12 0 1 1 -.19-6.24h53.1a3.12 3.12 0 0 1 1 6.1 4.43 4.43 0 0 1 -1.25.13h-26.31z"/><path d="m56.3 40.8h26.45a3.13 3.13 0 0 1 .9 6.14 4.08 4.08 0 0 1 -1.06.1h-52.8a3.08 3.08 0 0 1 -3.22-3.16 3 3 0 0 1 3.19-3.08z"/><path d="m40.44 53.89h9.17a3.08 3.08 0 0 1 3.31 3.27q0 6.15 0 12.29a3 3 0 0 1 -3.19 3.18h-18.53a3.07 3.07 0 0 1 -3.26-3.22q0-6.2 0-12.39a3.06 3.06 0 0 1 3.14-3.14h9.37z"/><path d="m72.68 53.89h9.95a3.13 3.13 0 1 1 0 6.25q-10.1 0-20.19 0a3.07 3.07 0 0 1 -3-2.63 3.12 3.12 0 0 1 2.14-3.51 4.09 4.09 0 0 1 1.15-.12h9.95z"/><path d="m72.69 72.64h-9.95a3.13 3.13 0 1 1 0-6.25h19.9a3.12 3.12 0 1 1 0 6.24c-3.32 0-6.63 0-9.95 0z"/></svg>