<svg enable-background="new 0 0 612 792" viewBox="0 0 612 792" xmlns="http://www.w3.org/2000/svg"><path d="m481.6 192.8h-62.3v-25.1c0-11.4-9.2-20.6-20.6-20.6s-20.6 9.2-20.6 20.6v25.1h-150v-25.1c0-11.4-9.2-20.6-20.6-20.6s-20.6 9.2-20.6 20.6v25.1h-56.4c-33.9 0-61.4 27.5-61.4 61.4v329.2c0 33.9 27.5 61.4 61.4 61.4h351.1c33.9 0 61.4-27.5 61.4-61.4v-329.2c0-33.8-27.6-61.4-61.4-61.4zm-351.3 41.3h56.4v22.9c0 11.4 9.2 20.6 20.6 20.6s20.6-9.2 20.6-20.6v-22.9h150v22.9c0 11.4 9.2 20.6 20.6 20.6s20.6-9.2 20.6-20.6v-22.9h62.3c11.1 0 20.1 9 20.1 20.1v66.1h-391.2v-66.1c0-11.1 9-20.1 20-20.1zm351.3 369.5h-351.3c-11.1 0-20.1-9-20.1-20.1v-221.9h391.4v221.9c.1 11.1-8.9 20.1-20 20.1z"/><path d="m394.9 416.9h-217.3c-11.4 0-20.6 9.2-20.6 20.6s9.2 20.6 20.6 20.6h217.4c11.4 0 20.6-9.2 20.6-20.6s-9.3-20.6-20.7-20.6z"/><path d="m257.6 517.1h-75.2c-11.4 0-20.6 9.2-20.6 20.6s9.2 20.6 20.6 20.6h75.2c11.4 0 20.6-9.2 20.6-20.6s-9.2-20.6-20.6-20.6z"/></svg>