<svg height="24" viewBox="0 0 24 24" width="24" xmlns="http://www.w3.org/2000/svg"><path d="m4 6.5c-.27614237 0-.5.22385763-.5.5v10c0 .2761424.22385763.5.5.5h16c.2761424 0 .5-.2238576.5-.5v-10c0-.27614237-.2238576-.5-.5-.5zm0-1.5h16c1.1045695 0 2 .8954305 2 2v10c0 1.1045695-.8954305 2-2 2h-16c-1.1045695 0-2-.8954305-2-2v-10c0-1.1045695.8954305-2 2-2zm7.8205087 7.7864896c-.6070507.0050689-2.49444158-1.4901836-2.7645234-2.6340288-.22671493-.96017851.23141068-2.15244341 1.4424135-2.15244341.5902253 0 1.1268641 1.521927 1.3071747 1.6774814.1788644-.1422889.7286928-1.674738 1.3514845-1.6774814 1.2007783-.0052894 1.6253073 1.1973151 1.3931999 2.15244341-.241975.9957337-2.1226985 2.6289599-2.7297492 2.6340288zm-4.0705087 1.2135104h8.5c.4142136 0 .75.3357864.75.75s-.3357864.75-.75.75h-8.5c-.41421356 0-.75-.3357864-.75-.75s.33578644-.75.75-.75z" fill="#191e26" fill-rule="evenodd"/></svg>