<svg height="24" viewBox="0 0 24 24" width="24" xmlns="http://www.w3.org/2000/svg"><path d="m7 2h10c1.1045695 0 2 .8954305 2 2v16c0 1.1045695-.8954305 2-2 2h-10c-1.1045695 0-2-.8954305-2-2v-16c0-1.1045695.8954305-2 2-2zm0 1.5c-.27614237 0-.5.22385763-.5.5v16c0 .2761424.22385763.5.5.5h10c.2761424 0 .5-.2238576.5-.5v-16c0-.27614237-.2238576-.5-.5-.5zm12 10.5234274v5.9765726c0 1.1045695-.8954305 2-2 2h-10c-1.1045695 0-2-.8954305-2-2v-3.9147905l1.88514567-2.3562372c.08926635-.1115737.19023254-.2132599.30116916-.3033168.85757113-.6961649 2.11712303-.5653192 2.81328791.2922519l.46346076.5709145 2.794206-3.4914828c.0891665-.1114174.1900016-.2129716.3007826-.3029276.857475-.69628331 2.1170449-.56561169 2.8133283.2918633zm-1.5.5323147-2.2930664-2.823918c-.1740709-.2143687-.4889634-.2470366-.7033321-.0729658-.0276953.022489-.052904.0478776-.0751957.0757319l-2.9978873 3.7459916 4.0746972 5.0194182h1.4947843c.2761424 0 .5-.2238576.5-.5zm-3.9268155 5.9442579-4.73815917-5.8367041c-.17404122-.2143928-.48892919-.2471042-.70332197-.073063-.02773416.0225143-.05297571.0479358-.0752923.0758292l-1.55641106 1.9453529v3.388585c0 .2761424.22385763.5.5.5zm-4.0731845-11.5c.8284271 0 1.5-.67157288 1.5-1.5s-.6715729-1.5-1.5-1.5c-.82842712 0-1.5.67157288-1.5 1.5s.67157288 1.5 1.5 1.5z" fill="#191e26"/></svg>