<svg fill="none" height="24" viewBox="0 0 24 24" width="24" xmlns="http://www.w3.org/2000/svg"><g fill="#191e26"><path d="m18.3 8.3-5.6-5.6c-.4-.4-1.2-.7-1.7-.7h-4c-1.1 0-2 .9-2 2v16c0 1.1.9 2 2 2h10c1.1 0 2-.9 2-2v-10c0-.5-.3-1.3-.7-1.7zm-.8 11.7c0 .3-.2.5-.5.5h-10c-.3 0-.5-.2-.5-.5v-16c0-.3.2-.5.5-.5h4c.2 0 .5.2.6.3l5.6 5.6c.1.1.3.5.3.6z"/><path d="m12 15c1 0 2-.2 2.8-.7.1-.1.2-.2.2-.3 0-1.372-1.032-2.444-2.334-2.723.664-.25 1.134-.86 1.134-1.577 0-.939-.806-1.7-1.8-1.7s-1.8.761-1.8 1.7c0 .72.475 1.331 1.144 1.579-1.307.295-2.344 1.432-2.344 2.721 0 .1.1.2.2.3.8.4 1.8.7 2.8.7zm2.255 1.25h-4.505c-.19891 0-.38968.079-.53033.2197-.14065.1406-.21967.3314-.21967.5303s.07902.3897.21967.5303c.14065.1407.33142.2197.53033.2197h4.505c.1989 0 .3897-.079.5303-.2197.1407-.1406.2197-.3314.2197-.5303s-.079-.3897-.2197-.5303c-.1406-.1407-.3314-.2197-.5303-.2197z"/></g></svg>