<svg enable-background="new 0 0 64 64" viewBox="0 0 64 64" xmlns="http://www.w3.org/2000/svg"><path d="m50 6h-36c-1.104 0-2 .896-2 2v48c0 1.104.896 2 2 2h36c1.104 0 2-.896 2-2v-48c0-1.104-.896-2-2-2zm-2 48h-32v-44h32z"/><path d="m20 24h8c1.104 0 2-.896 2-2v-8c0-1.104-.896-2-2-2h-8c-1.104 0-2 .896-2 2v8c0 1.104.896 2 2 2zm2-8h4v4h-4z"/><path d="m20 38h8c1.104 0 2-.896 2-2v-8c0-1.104-.896-2-2-2h-8c-1.104 0-2 .896-2 2v8c0 1.104.896 2 2 2zm2-8h4v4h-4z"/><path d="m34 16h10c1.104 0 2-.896 2-2s-.896-2-2-2h-10c-1.104 0-2 .896-2 2s.896 2 2 2z"/><path d="m34 22h10c1.104 0 2-.896 2-2s-.896-2-2-2h-10c-1.104 0-2 .896-2 2s.896 2 2 2z"/><path d="m34 30h10c1.104 0 2-.896 2-2s-.896-2-2-2h-10c-1.104 0-2 .896-2 2s.896 2 2 2z"/><path d="m34 36h10c1.104 0 2-.896 2-2s-.896-2-2-2h-10c-1.104 0-2 .896-2 2s.896 2 2 2z"/><path d="m20 52h8c1.104 0 2-.896 2-2v-8c0-1.104-.896-2-2-2h-8c-1.104 0-2 .896-2 2v8c0 1.104.896 2 2 2zm2-8h4v4h-4z"/><path d="m34 44h10c1.104 0 2-.896 2-2s-.896-2-2-2h-10c-1.104 0-2 .896-2 2s.896 2 2 2z"/><path d="m34 50h10c1.104 0 2-.896 2-2s-.896-2-2-2h-10c-1.104 0-2 .896-2 2s.896 2 2 2z"/></svg>